<?xml version="1.0" encoding="UTF-8"?>
<svg id="Layer_2" data-name="Layer 2" xmlns="http://www.w3.org/2000/svg" viewBox="0 0 68.14 17.54">
  <defs>
    <style>
      .cls-1 {
      stroke-width: 0px;
      }
    </style>
  </defs>
  <g id="Layer_1-2" data-name="Layer 1" fill="#000000">
    <g>
      <path class="cls-1"
        d="m0,.29h16.79c1.1,0,2.02.25,2.76.75.74.5,1.29,1.13,1.65,1.88s.53,1.51.53,2.26c0,.86-.18,1.58-.53,2.16-.35.58-.91,1.02-1.67,1.31v.24c.78.26,1.43.78,1.95,1.55.52.78.79,1.63.79,2.57,0,.89-.2,1.65-.59,2.29-.4.64-.94,1.12-1.63,1.45-.69.33-1.49.5-2.4.5H0V.29Zm16.3,7.19c.65,0,1.18-.19,1.61-.58s.64-.88.64-1.48-.21-1.11-.63-1.5-.96-.58-1.62-.58H3.15v4.14h13.15Zm.44,6.71c.65,0,1.18-.2,1.61-.61.43-.4.64-.9.64-1.5s-.21-1.09-.63-1.47c-.42-.38-.96-.57-1.62-.57H3.15v4.14h13.59Z" />
      <path class="cls-1"
        d="m28.41,17.54c-.74,0-1.44-.15-2.11-.45s-1.2-.73-1.61-1.31c-.41-.57-.62-1.25-.62-2.02,0-.84.22-1.57.65-2.18.44-.61,1.06-1.09,1.88-1.42s1.78-.5,2.89-.5c.81,0,1.59.1,2.35.29v-1.91h-6.95v-2.91h9.93v12.11h-2.54l-.41-1.38h-.24c-.18.55-.54.96-1.09,1.25-.55.28-1.26.42-2.13.42Zm-1.33-3.97c0,.39.16.69.48.91s.78.33,1.38.33c.53,0,1.02-.08,1.47-.23.44-.15.79-.38,1.05-.67.26-.29.39-.64.39-1.04v-.36c-.76-.24-1.58-.36-2.45-.36-.66,0-1.22.13-1.66.39s-.67.61-.67,1.04Z" />
      <path class="cls-1" d="m40.79,0v17.25h-3.05V0h3.05Z" />
      <path class="cls-1"
        d="m51.28,16.16h-.24c-.23.4-.56.74-1.02.99s-1.01.39-1.67.39c-1.5,0-2.69-.49-3.57-1.48s-1.32-2.31-1.32-3.97v-6.95h3.05v5.98c0,1.23.18,2.14.53,2.73s.9.88,1.65.88c.81,0,1.41-.26,1.8-.77.4-.52.59-1.3.59-2.35v-6.47h3.05v12.11h-2.57l-.29-1.09Z" />
      <path class="cls-1"
        d="m59.15,12.11c.1.52.29.96.57,1.33s.63.65,1.04.85c.41.19.86.29,1.34.29.71,0,1.31-.15,1.79-.44.48-.29.86-.73,1.11-1.33l2.81.9c-.42,1.23-1.14,2.17-2.17,2.83-1.03.66-2.21.99-3.55.99-1.13,0-2.16-.29-3.08-.86-.92-.57-1.64-1.35-2.17-2.33-.52-.98-.79-2.06-.79-3.23s.26-2.2.79-3.16c.52-.96,1.25-1.72,2.17-2.28s1.95-.84,3.08-.84,2.15.28,3.06.84c.91.56,1.63,1.31,2.16,2.26.52.95.8,2.01.81,3.17v.99h-8.99Zm2.95-4.31c-.68,0-1.28.19-1.79.56s-.88.86-1.09,1.45h5.76c-.21-.6-.57-1.08-1.09-1.45-.52-.37-1.11-.56-1.79-.56Z" />
    </g>
  </g>
</svg>