<?xml version="1.0" encoding="UTF-8"?>
<svg id="Layer_2" data-name="Layer 2" xmlns="http://www.w3.org/2000/svg" viewBox="0 0 1783.27 331">
  <g id="Layer_2-2" data-name="Layer 2">
    <g>
      <path d="m103.67,55.79H0V0h267.77v55.79h-103.67v269.63h-60.43V55.79Z"/>
      <path d="m260.8,92.98h327.74v55.79h-269.17v176.66h-58.58V92.98Z"/>
      <path d="m697.32,331c-14.26,0-27.74-2.87-40.44-8.6-12.71-5.73-23.01-14.1-30.91-25.1-7.9-11-11.85-23.94-11.85-38.82,0-16.11,4.18-30.06,12.55-41.84,8.37-11.77,20.38-20.84,36.03-27.2,15.65-6.35,34.17-9.53,55.55-9.53,15.49,0,30.52,1.86,45.09,5.58v-36.73h-133.42v-55.79h190.6v232.44h-48.81l-7.9-26.5h-4.65c-3.41,10.54-10.39,18.52-20.92,23.94-10.54,5.42-24.17,8.13-40.91,8.13Zm-25.57-76.24c0,7.44,3.09,13.25,9.3,17.43,6.2,4.18,15.03,6.28,26.5,6.28,10.23,0,19.6-1.47,28.13-4.42,8.52-2.94,15.26-7.21,20.22-12.78,4.95-5.58,7.44-12.24,7.44-19.99v-6.97c-14.57-4.65-30.22-6.97-46.95-6.97-12.71,0-23.32,2.48-31.84,7.44-8.53,4.96-12.78,11.62-12.78,19.99Z"/>
      <path d="m926.5,113.9h4.65c4.34-7.74,10.85-14.1,19.53-19.06,8.67-4.95,19.37-7.44,32.08-7.44,28.82,0,51.67,9.46,68.57,28.36,16.89,18.91,25.34,44.32,25.34,76.24v133.42h-58.58v-114.83c0-23.55-3.41-40.98-10.23-52.3-6.82-11.31-17.36-16.97-31.61-16.97-15.5,0-27.04,4.96-34.63,14.88-7.6,9.92-11.39,24.95-11.39,45.09v124.12h-58.57V92.98h49.28l5.58,20.92Z"/>
      <path d="m1109.19,269.63h118.54c0-4.95-1.79-9.6-5.35-13.95-3.57-4.34-7.98-8.21-13.25-11.62-5.27-3.41-12.86-8.06-22.78-13.95-15.5-8.67-28.36-16.74-38.59-24.17s-18.99-17.12-26.27-29.06c-7.29-11.93-10.92-25.95-10.92-42.07v-41.84h174.33v55.79h-108.78c0,4.96,1.78,9.69,5.35,14.18,3.56,4.5,8.21,8.6,13.95,12.32,5.73,3.72,13.4,8.37,23.01,13.95,15.49,8.68,28.2,16.74,38.12,24.17,9.92,7.44,18.52,17.05,25.8,28.82,7.28,11.78,10.92,25.57,10.92,41.37v41.84h-184.09v-55.79Z"/>
      <path d="m1551.29,250.11c-8.99,25.1-23.48,44.86-43.47,59.27-19.99,14.41-43.31,21.62-69.96,21.62-22.94,0-43.63-5.35-62.06-16.04-18.44-10.69-32.93-25.34-43.47-43.93-10.54-18.59-15.81-39.35-15.81-62.29s5.27-43.62,15.81-62.06c10.53-18.44,25.02-32.93,43.47-43.47,18.44-10.53,39.12-15.81,62.06-15.81,26.96,0,50.44,7.13,70.43,21.38,19.99,14.26,34.32,33.78,43,58.58l-55.79,19.52c-4.96-13.32-12.25-23.4-21.85-30.22-9.61-6.81-21.54-10.23-35.8-10.23-18.91,0-34.1,5.66-45.56,16.97-11.47,11.32-17.2,26.43-17.2,45.33s5.73,33.63,17.2,45.09c11.46,11.47,26.65,17.2,45.56,17.2,14.25,0,26.19-3.33,35.8-9.99,9.6-6.66,16.89-16.66,21.85-29.99l55.79,19.06Z"/>
      <path d="m1660.08,331c-14.26,0-27.74-2.87-40.45-8.6-12.71-5.73-23.01-14.1-30.91-25.1-7.9-11-11.85-23.94-11.85-38.82,0-16.11,4.18-30.06,12.55-41.84,8.37-11.77,20.38-20.84,36.03-27.2,15.65-6.35,34.17-9.53,55.55-9.53,15.49,0,30.52,1.86,45.09,5.58v-36.73h-133.42v-55.79h190.6v232.44h-48.81l-7.9-26.5h-4.65c-3.41,10.54-10.39,18.52-20.92,23.94-10.54,5.42-24.17,8.13-40.91,8.13Zm-25.57-76.24c0,7.44,3.09,13.25,9.3,17.43,6.2,4.18,15.03,6.28,26.5,6.28,10.23,0,19.6-1.47,28.13-4.42,8.52-2.94,15.26-7.21,20.22-12.78,4.95-5.58,7.44-12.24,7.44-19.99v-6.97c-14.57-4.65-30.22-6.97-46.95-6.97-12.71,0-23.32,2.48-31.84,7.44-8.53,4.96-12.79,11.62-12.79,19.99Z"/>
    </g>
  </g>
</svg>