<?xml version="1.0" encoding="UTF-8"?>
<svg id="Layer_2" data-name="Layer 2" xmlns="http://www.w3.org/2000/svg" viewBox="0 0 3195.9 337.25">
  <g id="Layer_2-2" data-name="Layer 2">
    <g>
      <path d="m103.88,61.49H0V5.59h268.31v55.9h-103.88v270.17h-60.56V61.49Z"/>
      <path d="m261.32,98.75h328.4v55.9h-269.71v177.01h-58.69V98.75Z"/>
      <path d="m698.71,337.25c-14.29,0-27.8-2.87-40.53-8.62-12.74-5.74-23.06-14.13-30.98-25.15-7.92-11.02-11.88-23.99-11.88-38.89,0-16.14,4.19-30.12,12.58-41.92,8.38-11.8,20.42-20.88,36.1-27.25,15.68-6.36,34.24-9.55,55.66-9.55,15.52,0,30.58,1.86,45.18,5.59v-36.8h-133.69v-55.9h190.98v232.91h-48.91l-7.92-26.55h-4.66c-3.42,10.56-10.41,18.56-20.96,23.99-10.56,5.43-24.22,8.15-40.99,8.15Zm-25.62-76.39c0,7.45,3.1,13.28,9.32,17.47,6.21,4.19,15.06,6.29,26.55,6.29,10.25,0,19.64-1.47,28.18-4.42,8.54-2.95,15.29-7.22,20.26-12.81,4.96-5.59,7.45-12.26,7.45-20.03v-6.99c-14.6-4.66-30.28-6.99-47.05-6.99-12.74,0-23.37,2.49-31.91,7.45-8.54,4.97-12.81,11.65-12.81,20.03Z"/>
      <path d="m928.35,119.71h4.66c4.35-7.76,10.87-14.13,19.56-19.1,8.69-4.96,19.4-7.45,32.14-7.45,28.88,0,51.78,9.48,68.71,28.41,16.92,18.95,25.39,44.41,25.39,76.39v133.69h-58.69v-115.06c0-23.6-3.42-41.06-10.25-52.4-6.83-11.33-17.4-17-31.67-17-15.53,0-27.1,4.97-34.7,14.91-7.61,9.94-11.41,25-11.41,45.18v124.37h-58.69V98.75h49.38l5.59,20.96Z"/>
      <path d="m1111.41,275.76h118.78c0-4.96-1.79-9.62-5.36-13.97-3.57-4.35-8-8.23-13.28-11.65-5.28-3.41-12.89-8.07-22.82-13.97-15.53-8.69-28.41-16.77-38.66-24.22-10.25-7.45-19.03-17.16-26.32-29.11-7.3-11.95-10.95-26.01-10.95-42.16v-41.92h174.68v55.9h-109c0,4.97,1.78,9.71,5.36,14.21,3.57,4.51,8.22,8.62,13.97,12.34,5.74,3.73,13.43,8.38,23.06,13.97,15.52,8.7,28.25,16.77,38.2,24.22,9.93,7.45,18.55,17.08,25.85,28.88,7.29,11.81,10.95,25.62,10.95,41.46v41.92h-184.46v-55.9Z"/>
      <path d="m1554.4,256.2c-9.01,25.15-23.52,44.95-43.55,59.39-20.03,14.44-43.4,21.66-70.1,21.66-22.99,0-43.71-5.36-62.19-16.07-18.48-10.71-33-25.39-43.55-44.02-10.56-18.63-15.84-39.43-15.84-62.42s5.28-43.71,15.84-62.19c10.55-18.47,25.07-32.99,43.55-43.55,18.47-10.55,39.2-15.84,62.19-15.84,27.02,0,50.54,7.15,70.57,21.43,20.03,14.29,34.39,33.85,43.09,58.69l-55.9,19.56c-4.97-13.35-12.27-23.44-21.89-30.28-9.63-6.83-21.59-10.25-35.87-10.25-18.95,0-34.16,5.67-45.65,17-11.49,11.34-17.24,26.48-17.24,45.42s5.74,33.7,17.24,45.18c11.48,11.49,26.7,17.23,45.65,17.23,14.28,0,26.24-3.33,35.87-10.01,9.62-6.67,16.92-16.69,21.89-30.05l55.9,19.1Z"/>
      <path d="m1663.4,337.25c-14.29,0-27.8-2.87-40.53-8.62-12.74-5.74-23.06-14.13-30.98-25.15-7.92-11.02-11.88-23.99-11.88-38.89,0-16.14,4.19-30.12,12.58-41.92,8.38-11.8,20.42-20.88,36.1-27.25,15.68-6.36,34.24-9.55,55.66-9.55,15.52,0,30.58,1.86,45.18,5.59v-36.8h-133.69v-55.9h190.98v232.91h-48.91l-7.92-26.55h-4.66c-3.42,10.56-10.41,18.56-20.96,23.99-10.56,5.43-24.22,8.15-40.99,8.15Zm-25.62-76.39c0,7.45,3.1,13.28,9.32,17.47,6.21,4.19,15.06,6.29,26.55,6.29,10.25,0,19.64-1.47,28.18-4.42,8.54-2.95,15.29-7.22,20.26-12.81,4.96-5.59,7.45-12.26,7.45-20.03v-6.99c-14.6-4.66-30.28-6.99-47.05-6.99-12.74,0-23.37,2.49-31.91,7.45-8.54,4.97-12.81,11.65-12.81,20.03Z"/>
      <path d="m2048.15,331.66L1912.6,5.59h66.15l97.82,237.1h4.66l97.36-237.1h66.14l-135.55,326.07h-61.02Z"/>
      <path d="m2307.14,337.25c-14.29,0-27.8-2.87-40.53-8.62-12.74-5.74-23.06-14.13-30.98-25.15-7.92-11.02-11.88-23.99-11.88-38.89,0-16.14,4.19-30.12,12.58-41.92,8.38-11.8,20.42-20.88,36.1-27.25,15.68-6.36,34.24-9.55,55.66-9.55,15.52,0,30.58,1.86,45.18,5.59v-36.8h-133.69v-55.9h190.98v232.91h-48.91l-7.92-26.55h-4.66c-3.42,10.56-10.41,18.56-20.96,23.99-10.56,5.43-24.22,8.15-40.99,8.15Zm-25.62-76.39c0,7.45,3.1,13.28,9.32,17.47,6.21,4.19,15.06,6.29,26.55,6.29,10.25,0,19.64-1.47,28.18-4.42,8.54-2.95,15.29-7.22,20.26-12.81,4.96-5.59,7.45-12.26,7.45-20.03v-6.99c-14.6-4.66-30.28-6.99-47.05-6.99-12.74,0-23.37,2.49-31.91,7.45-8.54,4.97-12.81,11.65-12.81,20.03Z"/>
      <path d="m2627.61,310.7h-4.66c-4.35,7.77-10.87,14.13-19.56,19.1-8.7,4.96-19.41,7.45-32.14,7.45-28.88,0-51.79-9.47-68.71-28.41-16.93-18.94-25.39-44.41-25.39-76.39V98.75h58.69v115.06c0,23.6,3.41,41.07,10.25,52.4,6.83,11.34,17.39,17,31.67,17,15.52,0,27.09-4.96,34.7-14.91,7.61-9.93,11.41-24.99,11.41-45.18v-124.37h58.69v232.91h-49.38l-5.59-20.96Z"/>
      <path d="m2797.16,0v331.66h-58.69V0h58.69Z"/>
      <path d="m2876.35,154.65h-37.26v-55.9c12.11-1.24,21.35-4.19,27.72-8.85,6.36-4.66,9.55-12.42,9.55-23.29V25.62h56.36v73.13h243.15v55.9h-243.15v124.84h263.18v52.17h-319.55v-177.01Z"/>
    </g>
  </g>
</svg>